<svg width="48" height="48" viewBox="0 0 48 48" fill="none" xmlns="http://www.w3.org/2000/svg" role="img" aria-label="Casewright">
  <rect width="48" height="48" rx="11" fill="#6865ba"/>
  <!-- Test-case folder (top-left tab, check, lines) - traced from the brand icon, normalized to 48. -->
  <g transform="translate(6.0046 5.6488) scale(0.17568)" fill="#ffffff">
    <path fill-rule="evenodd" transform="scale(0.26458333)" d="m 279.11133,50.634766 c -20.89989,-0.05271 -69.68444,0.03069 -125.56641,1.541015 -55.15701,1.490729 -91.596275,61.918209 -91.498045,92.371099 0.51004,158.1264 -0.621463,408.05949 -0.308594,487.8164 0.308742,78.69993 73.177259,105.63405 111.472659,104.58399 44.56899,-1.22208 343.26688,-1.63084 428.99023,0.3457 74.12179,1.70906 108.43524,-72.63276 108.78711,-95.60938 1.86289,-121.62739 0.24189,-339.13722 0,-409.20507 -0.2183,-63.21263 -54.90477,-100.49677 -104.73047,-100.42579 -67.69976,0.0964 -208.04687,0.43555 -208.04687,0.43555 0,0 -22.94221,-25.58725 -44.16211,-52.734374 -20.82919,-26.647272 -64.10156,-29.068359 -64.10156,-29.068359 0,0 -3.86931,-0.03321 -10.83594,-0.05078 z M 165.4707,99.878906 303.17773,100.4375 c 0,0 6.67267,0.69399 31.49024,31.86523 19.56772,24.57737 37.08203,45.65235 37.08203,45.65235 l 237.21289,2.42383 c 0,0 52.17651,6.70679 52.92188,54.41015 0.74536,47.70336 0.74414,399.51563 0.74414,399.51563 0,0 -12.67141,53.66797 -52.17579,53.66797 0,0 -420.83453,-0.32315 -448.70898,0 -13.45743,0.15609 -52.22099,-18.3711 -52.17578,-48.44922 0.0448,-29.82391 0.74609,-486.72266 0.74609,-486.72266 0,0 2.9807,-53.667242 55.15625,-52.921874 z"/>
    <path d="M 88.449202,58.473106 97.42231,67.34761 63.797809,101.36653 43.583664,81.3496 l 9.17032,-8.8745 10.846612,10.945217 z"/>
    <path d="m 156.38844,79.673306 0.0986,12.029879 -67.643426,-0.19721 12.029886,-11.931274 z"/>
    <path d="m 47.922309,112.70618 v 11.73406 l 108.268921,0.0986 0.0986,-11.93127 z"/>
    <path d="m 47.922309,145.83765 v 11.73406 l 108.268921,0.0986 v -11.93128 z"/>
  </g>
</svg>
