<svg width="48" height="48" viewBox="0 0 48 48" fill="none" xmlns="http://www.w3.org/2000/svg" role="img" aria-label="Casewright">
  <!-- Test-case document: rounded card with a top-left tab, a checked title line, and two text lines. -->
  <g stroke="#4A6DA8" stroke-width="3.4" stroke-linecap="round" stroke-linejoin="round" fill="none">
    <path d="M11.5 7 L23 7 A3 3 0 0 1 26 10 L26 11.5 A2.5 2.5 0 0 0 28.5 14 L36.5 14 A5 5 0 0 1 41.5 19 L41.5 36.5 A5 5 0 0 1 36.5 41.5 L11.5 41.5 A5 5 0 0 1 6.5 36.5 L6.5 12 A5 5 0 0 1 11.5 7 Z"/>
    <path d="M12.6 22.1 L15.1 24.7 L19.3 19.5"/>
    <path d="M22.8 22 L34.5 22"/>
    <path d="M13.5 29 L34.5 29"/>
    <path d="M13.5 35 L34.5 35"/>
  </g>
</svg>
